<?xml version="1.0" encoding="UTF-8"?>
<svg xmlns="http://www.w3.org/2000/svg" xmlns:xlink="http://www.w3.org/1999/xlink" width="240pt" height="240pt" viewBox="0 0 240 240" version="1.1">
<g id="surface1">
<path style=" stroke:none;fill-rule:nonzero;fill:rgb(100%,77.647059%,10.588235%);fill-opacity:1;" d="M 194.085938 232.421875 L 46.1875 232.421875 C 30.121094 232.421875 17.050781 219.347656 17.050781 203.277344 L 17.050781 76.660156 C 17.050781 72.984375 20.027344 70.003906 23.707031 70.003906 C 27.382812 70.003906 30.363281 72.984375 30.363281 76.660156 L 30.363281 203.28125 C 30.363281 212.007812 37.460938 219.109375 46.1875 219.109375 L 194.085938 219.109375 C 202.8125 219.109375 209.914062 212.007812 209.914062 203.28125 L 209.914062 138.566406 C 209.914062 134.890625 212.890625 131.910156 216.570312 131.910156 C 220.246094 131.910156 223.226562 134.890625 223.226562 138.566406 L 223.226562 203.277344 C 223.226562 219.347656 210.15625 232.421875 194.085938 232.421875 Z M 194.085938 232.421875 "/>
<path style=" stroke:none;fill-rule:nonzero;fill:rgb(99.607843%,88.235294%,52.941176%);fill-opacity:1;" d="M 100.664062 147.378906 C 112.289062 147.378906 117.507812 153.894531 119.558594 157.722656 C 119.816406 158.203125 120.515625 158.203125 120.773438 157.722656 C 122.820312 153.894531 128.003906 147.378906 139.628906 147.378906 C 152.871094 147.378906 164.519531 156.417969 164.519531 172.929688 C 164.519531 179.609375 163.160156 185.332031 159.382812 191.714844 C 151.679688 204.730469 126.320312 221.601562 121.109375 224.925781 C 120.535156 225.296875 119.804688 225.296875 119.226562 224.929688 C 114.011719 221.621094 88.644531 204.835938 80.882812 191.71875 C 77.105469 185.332031 75.753906 179.609375 75.753906 172.929688 C 75.753906 156.417969 87.421875 147.378906 100.664062 147.378906 Z M 100.664062 147.378906 "/>
<path style=" stroke:none;fill-rule:nonzero;fill:rgb(100%,77.647059%,10.588235%);fill-opacity:1;" d="M 120.167969 231.859375 C 118.566406 231.859375 117.007812 231.40625 115.65625 230.546875 C 110.433594 227.234375 83.933594 209.949219 75.152344 195.105469 C 70.964844 188.023438 69.097656 181.183594 69.097656 172.929688 C 69.097656 151.785156 84.976562 140.722656 100.664062 140.722656 C 109.980469 140.722656 116.1875 144.160156 120.160156 147.816406 C 124.125 144.160156 130.320312 140.722656 139.628906 140.722656 C 155.308594 140.722656 171.179688 151.785156 171.179688 172.929688 C 171.179688 181.175781 169.308594 188.015625 165.109375 195.105469 C 156.210938 210.152344 127.890625 228.496094 124.691406 230.539062 C 123.332031 231.402344 121.769531 231.859375 120.167969 231.859375 Z M 100.664062 154.035156 C 92.242188 154.035156 82.410156 158.984375 82.410156 172.929688 C 82.410156 178.820312 83.625 183.28125 86.613281 188.324219 C 92.128906 197.65625 109.671875 210.675781 120.160156 217.601562 C 130.644531 210.640625 148.175781 197.582031 153.652344 188.324219 C 156.644531 183.269531 157.867188 178.808594 157.867188 172.929688 C 157.867188 158.984375 148.042969 154.035156 139.628906 154.035156 C 131.910156 154.035156 128.304688 157.746094 126.644531 160.859375 C 125.363281 163.253906 122.878906 164.742188 120.164062 164.742188 C 117.453125 164.742188 114.972656 163.257812 113.691406 160.871094 C 112.019531 157.75 108.40625 154.035156 100.664062 154.035156 Z M 100.664062 154.035156 "/>
<path style=" stroke:none;fill-rule:nonzero;fill:rgb(99.607843%,88.235294%,52.941176%);fill-opacity:1;" d="M 203.476562 14.511719 L 36.796875 14.511719 C 36.796875 14.511719 6.65625 51.796875 6.65625 65.648438 C 6.65625 87.476562 24.347656 105.167969 46.175781 105.167969 C 63.089844 105.167969 77.519531 94.53125 83.15625 79.585938 C 88.792969 94.53125 103.21875 105.167969 120.136719 105.167969 C 137.058594 105.167969 151.484375 94.53125 157.121094 79.585938 C 162.757812 94.53125 177.183594 105.167969 194.101562 105.167969 C 215.929688 105.167969 233.621094 87.476562 233.621094 65.648438 C 233.617188 51.796875 203.476562 14.511719 203.476562 14.511719 Z M 203.476562 14.511719 "/>
<path style=" stroke:none;fill-rule:nonzero;fill:rgb(100%,77.647059%,10.588235%);fill-opacity:1;" d="M 194.101562 111.824219 C 179.390625 111.824219 165.710938 104.703125 157.121094 93.261719 C 148.527344 104.703125 134.847656 111.824219 120.136719 111.824219 C 105.425781 111.824219 91.746094 104.703125 83.15625 93.261719 C 74.5625 104.703125 60.882812 111.824219 46.171875 111.824219 C 20.714844 111.824219 0 91.109375 0 65.648438 C 0 61.050781 1.679688 52.46875 16.226562 31.132812 C 23.828125 19.984375 31.308594 10.714844 31.621094 10.324219 C 32.886719 8.761719 34.785156 7.855469 36.796875 7.855469 L 203.472656 7.855469 C 205.484375 7.855469 207.386719 8.761719 208.652344 10.324219 C 208.964844 10.714844 216.445312 19.984375 224.046875 31.132812 C 238.59375 52.46875 240.273438 61.050781 240.273438 65.648438 C 240.277344 91.109375 219.5625 111.824219 194.101562 111.824219 Z M 157.121094 72.929688 C 159.890625 72.929688 162.371094 74.644531 163.347656 77.238281 C 168.148438 89.960938 180.503906 98.511719 194.101562 98.511719 C 212.222656 98.511719 226.964844 83.769531 226.964844 65.648438 C 226.964844 58.894531 213.464844 37.890625 200.273438 21.167969 L 40.003906 21.167969 C 26.808594 37.886719 13.3125 58.894531 13.3125 65.648438 C 13.3125 83.769531 28.054688 98.511719 46.175781 98.511719 C 59.769531 98.511719 72.128906 89.960938 76.929688 77.238281 C 77.902344 74.644531 80.382812 72.929688 83.15625 72.929688 C 85.925781 72.929688 88.40625 74.644531 89.382812 77.238281 C 94.183594 89.960938 106.542969 98.511719 120.136719 98.511719 C 133.734375 98.511719 146.09375 89.960938 150.890625 77.238281 C 151.867188 74.644531 154.351562 72.929688 157.121094 72.929688 Z M 157.121094 72.929688 "/>
<path style=" stroke:none;fill-rule:nonzero;fill:rgb(100%,77.647059%,10.588235%);fill-opacity:1;" d="M 188.089844 55.539062 L 14.605469 55.539062 C 10.925781 55.539062 7.949219 52.558594 7.949219 48.882812 C 7.949219 45.207031 10.925781 42.226562 14.605469 42.226562 L 188.089844 42.226562 C 191.765625 42.226562 194.746094 45.207031 194.746094 48.882812 C 194.746094 52.558594 191.765625 55.539062 188.089844 55.539062 Z M 188.089844 55.539062 "/>
</g>
</svg>
