<?xml version="1.0" encoding="UTF-8"?>
<svg xmlns="http://www.w3.org/2000/svg" xmlns:xlink="http://www.w3.org/1999/xlink" width="180pt" height="180pt" viewBox="0 0 180 180" version="1.1">
<g id="surface1">
<path style=" stroke:none;fill-rule:nonzero;fill:rgb(100%,50.196078%,66.666667%);fill-opacity:1;" d="M 142.734375 126.140625 C 124.1875 126.140625 108.941406 139.941406 106.351562 157.78125 L 116.367188 157.78125 L 126.914062 168.328125 L 180 168.328125 L 180 163.054688 C 180 142.703125 163.085938 126.140625 142.734375 126.140625 Z M 142.734375 126.140625 "/>
<path style=" stroke:none;fill-rule:nonzero;fill:rgb(50.980392%,88.235294%,84.705882%);fill-opacity:1;" d="M 73.648438 157.78125 C 71.058594 139.941406 55.8125 126.140625 37.265625 126.140625 C 16.914062 126.140625 0 142.703125 0 163.054688 L 0 168.328125 L 53.085938 168.328125 L 63.632812 157.78125 Z M 73.648438 157.78125 "/>
<path style=" stroke:none;fill-rule:nonzero;fill:rgb(100%,74.509804%,25.098039%);fill-opacity:1;" d="M 37.265625 83.953125 L 37.265625 73.40625 C 40.175781 73.40625 42.539062 71.042969 42.539062 68.132812 C 42.539062 65.222656 40.175781 62.859375 37.265625 62.859375 L 37.265625 52.3125 C 45.988281 52.3125 53.085938 59.410156 53.085938 68.132812 C 53.085938 76.859375 45.988281 83.953125 37.265625 83.953125 Z M 37.265625 83.953125 "/>
<path style=" stroke:none;fill-rule:nonzero;fill:rgb(100%,74.509804%,25.098039%);fill-opacity:1;" d="M 90 83.953125 L 90 73.40625 C 92.910156 73.40625 95.273438 71.042969 95.273438 68.132812 C 95.273438 65.222656 92.910156 62.859375 90 62.859375 L 90 52.3125 C 98.722656 52.3125 105.820312 59.410156 105.820312 68.132812 C 105.820312 76.859375 98.722656 83.953125 90 83.953125 Z M 90 83.953125 "/>
<path style=" stroke:none;fill-rule:nonzero;fill:rgb(100%,74.509804%,25.098039%);fill-opacity:1;" d="M 142.734375 83.953125 L 142.734375 73.40625 C 145.644531 73.40625 148.007812 71.042969 148.007812 68.132812 C 148.007812 65.222656 145.644531 62.859375 142.734375 62.859375 L 142.734375 52.3125 C 151.457031 52.3125 158.554688 59.410156 158.554688 68.132812 C 158.554688 76.859375 151.457031 83.953125 142.734375 83.953125 Z M 142.734375 83.953125 "/>
<path style=" stroke:none;fill-rule:nonzero;fill:rgb(100%,86.666667%,80%);fill-opacity:1;" d="M 37.265625 126.140625 C 22.726562 126.140625 10.898438 114.3125 10.898438 99.773438 C 10.898438 85.234375 22.726562 73.40625 37.265625 73.40625 C 51.804688 73.40625 63.632812 85.234375 63.632812 99.773438 C 63.632812 114.3125 51.804688 126.140625 37.265625 126.140625 Z M 37.265625 126.140625 "/>
<path style=" stroke:none;fill-rule:nonzero;fill:rgb(100%,87.45098%,25.098039%);fill-opacity:1;" d="M 90 126.140625 C 69.644531 126.140625 53.085938 142.699219 53.085938 163.054688 L 53.085938 168.328125 L 126.914062 168.328125 L 126.914062 163.054688 C 126.914062 142.699219 110.355469 126.140625 90 126.140625 Z M 90 126.140625 "/>
<path style=" stroke:none;fill-rule:nonzero;fill:rgb(100%,79.215686%,74.901961%);fill-opacity:1;" d="M 142.734375 126.140625 C 128.195312 126.140625 116.367188 114.3125 116.367188 99.773438 C 116.367188 85.234375 128.195312 73.40625 142.734375 73.40625 C 157.273438 73.40625 169.101562 85.234375 169.101562 99.773438 C 169.101562 114.3125 157.273438 126.140625 142.734375 126.140625 Z M 142.734375 126.140625 "/>
<path style=" stroke:none;fill-rule:nonzero;fill:rgb(100%,74.509804%,25.098039%);fill-opacity:1;" d="M 126.914062 163.054688 L 126.914062 168.328125 L 90 168.328125 L 90 126.140625 C 110.355469 126.140625 126.914062 142.699219 126.914062 163.054688 Z M 126.914062 163.054688 "/>
<path style=" stroke:none;fill-rule:nonzero;fill:rgb(54.117647%,90.196078%,51.764706%);fill-opacity:1;" d="M 107.367188 11.671875 L 90 29.035156 L 83.179688 22.21875 L 75.726562 29.675781 L 90 43.949219 L 114.820312 19.128906 Z M 107.367188 11.671875 "/>
<path style=" stroke:none;fill-rule:nonzero;fill:rgb(40%,80%,47.843137%);fill-opacity:1;" d="M 107.367188 11.671875 L 90 29.035156 L 90 43.949219 L 114.820312 19.128906 Z M 107.367188 11.671875 "/>
<path style=" stroke:none;fill-rule:nonzero;fill:rgb(100%,86.666667%,80%);fill-opacity:1;" d="M 116.367188 99.773438 C 116.367188 114.335938 104.5625 126.140625 90 126.140625 C 75.4375 126.140625 63.632812 114.335938 63.632812 99.773438 C 63.632812 85.210938 75.4375 73.40625 90 73.40625 C 104.5625 73.40625 116.367188 85.210938 116.367188 99.773438 Z M 116.367188 99.773438 "/>
<path style=" stroke:none;fill-rule:nonzero;fill:rgb(100%,79.215686%,74.901961%);fill-opacity:1;" d="M 116.367188 99.773438 C 116.367188 85.234375 104.539062 73.40625 90 73.40625 L 90 126.140625 C 104.539062 126.140625 116.367188 114.3125 116.367188 99.773438 Z M 116.367188 99.773438 "/>
</g>
</svg>
