<?xml version="1.0" encoding="UTF-8"?>
<svg xmlns="http://www.w3.org/2000/svg" xmlns:xlink="http://www.w3.org/1999/xlink" width="64pt" height="64pt" viewBox="0 0 64 64" version="1.1">
<g id="surface1">
<path style=" stroke:none;fill-rule:nonzero;fill:rgb(100%,72.54902%,32.941176%);fill-opacity:1;" d="M 55.425781 24.675781 C 55.425781 11.738281 44.9375 1.25 32 1.25 C 19.0625 1.25 8.574219 11.738281 8.574219 24.675781 C 8.574219 30.285156 10.546875 35.429688 13.832031 39.464844 L 32 62.75 L 50.082031 39.585938 L 50.066406 39.585938 C 53.414062 35.535156 55.425781 30.339844 55.425781 24.675781 Z M 55.425781 24.675781 "/>
<path style=" stroke:none;fill-rule:nonzero;fill:rgb(100%,100%,100%);fill-opacity:1;" d="M 47.5 24.675781 C 47.5 33.234375 40.558594 40.175781 32 40.175781 C 23.441406 40.175781 16.5 33.234375 16.5 24.675781 C 16.5 16.113281 23.441406 9.175781 32 9.175781 C 40.558594 9.175781 47.5 16.113281 47.5 24.675781 Z M 47.5 24.675781 "/>
<path style=" stroke:none;fill-rule:nonzero;fill:rgb(84.705882%,84.705882%,89.411765%);fill-opacity:1;" d="M 24.5 23.253906 L 39.5 23.253906 L 39.5 34.753906 L 24.5 34.753906 Z M 24.5 23.253906 "/>
<path style=" stroke:none;fill-rule:nonzero;fill:rgb(100%,100%,100%);fill-opacity:1;" d="M 29.5 28.253906 L 34.5 28.253906 L 34.5 34.753906 L 29.5 34.753906 Z M 29.5 28.253906 "/>
<path style=" stroke:none;fill-rule:nonzero;fill:rgb(100%,36.470588%,36.470588%);fill-opacity:1;" d="M 42.007812 23.253906 L 32 14.8125 L 21.992188 23.253906 Z M 42.007812 23.253906 "/>
<path style=" stroke:none;fill-rule:nonzero;fill:rgb(0%,0%,0%);fill-opacity:1;" d="M 20.816406 23.683594 C 20.996094 24.175781 21.464844 24.503906 21.992188 24.503906 L 23.25 24.503906 L 23.25 34.753906 C 23.25 35.445312 23.808594 36.003906 24.5 36.003906 L 39.5 36.003906 C 40.191406 36.003906 40.75 35.445312 40.75 34.753906 L 40.75 24.503906 L 42.007812 24.503906 C 42.535156 24.503906 43.003906 24.175781 43.183594 23.683594 C 43.363281 23.191406 43.21875 22.636719 42.816406 22.300781 L 32.804688 13.855469 C 32.339844 13.464844 31.660156 13.464844 31.195312 13.855469 L 21.183594 22.300781 C 20.785156 22.636719 20.636719 23.191406 20.816406 23.683594 Z M 30.75 33.503906 L 30.75 29.503906 L 33.25 29.503906 L 33.25 33.503906 Z M 38.25 33.503906 L 35.75 33.503906 L 35.75 28.253906 C 35.75 27.566406 35.191406 27.003906 34.5 27.003906 L 29.5 27.003906 C 28.808594 27.003906 28.25 27.566406 28.25 28.253906 L 28.25 33.503906 L 25.75 33.503906 L 25.75 24.503906 L 38.25 24.503906 Z M 32 16.445312 L 38.589844 22.003906 L 25.410156 22.003906 Z M 32 16.445312 "/>
<path style=" stroke:none;fill-rule:nonzero;fill:rgb(0%,0%,0%);fill-opacity:1;" d="M 32 0 C 18.394531 0 7.324219 11.070312 7.324219 24.675781 C 7.324219 30.316406 9.277344 35.832031 12.828125 40.207031 C 12.832031 40.214844 12.839844 40.222656 12.847656 40.230469 L 16.832031 45.339844 C 17.257812 45.886719 18.042969 45.980469 18.585938 45.558594 C 19.132812 45.132812 19.226562 44.347656 18.804688 43.804688 L 14.851562 38.738281 C 14.835938 38.71875 14.820312 38.695312 14.804688 38.671875 C 11.59375 34.734375 9.824219 29.765625 9.824219 24.675781 C 9.824219 12.449219 19.773438 2.5 32 2.5 C 44.226562 2.5 54.175781 12.449219 54.175781 24.675781 C 54.175781 29.820312 52.375 34.832031 49.105469 38.789062 C 49.0625 38.839844 49.023438 38.894531 48.992188 38.953125 L 32 60.71875 L 25.695312 52.640625 C 25.273438 52.09375 24.488281 51.996094 23.941406 52.421875 C 23.398438 52.847656 23.300781 53.632812 23.726562 54.175781 L 31.015625 63.519531 C 31.25 63.824219 31.613281 64 32 64 C 32.386719 64 32.75 63.824219 32.984375 63.519531 L 51.066406 40.355469 C 51.09375 40.320312 51.117188 40.285156 51.140625 40.246094 C 54.710938 35.863281 56.675781 30.339844 56.675781 24.675781 C 56.675781 11.070312 45.605469 0 32 0 Z M 32 0 "/>
<path style=" stroke:none;fill-rule:nonzero;fill:rgb(0%,0%,0%);fill-opacity:1;" d="M 22.957031 49.128906 C 22.535156 48.582031 21.746094 48.484375 21.203125 48.910156 C 20.660156 49.335938 20.5625 50.121094 20.984375 50.664062 L 21.074219 50.777344 C 21.320312 51.09375 21.6875 51.257812 22.058594 51.257812 C 22.328125 51.257812 22.601562 51.171875 22.828125 50.996094 C 23.371094 50.570312 23.46875 49.785156 23.046875 49.238281 Z M 22.957031 49.128906 "/>
<path style=" stroke:none;fill-rule:nonzero;fill:rgb(0%,0%,0%);fill-opacity:1;" d="M 26.636719 8.800781 C 19.828125 11.101562 15.25 17.480469 15.25 24.675781 C 15.25 33.910156 22.765625 41.425781 32 41.425781 C 41.234375 41.425781 48.75 33.910156 48.75 24.675781 C 48.75 21.222656 47.707031 17.90625 45.734375 15.085938 C 43.808594 12.332031 41.136719 10.238281 38.011719 9.035156 C 37.367188 8.789062 36.644531 9.109375 36.398438 9.753906 C 36.148438 10.398438 36.46875 11.121094 37.113281 11.371094 C 42.578125 13.472656 46.25 18.820312 46.25 24.675781 C 46.25 32.53125 39.859375 38.925781 32 38.925781 C 24.144531 38.925781 17.75 32.53125 17.75 24.675781 C 17.75 18.554688 21.644531 13.128906 27.4375 11.171875 C 28.089844 10.949219 28.441406 10.242188 28.222656 9.585938 C 28 8.933594 27.292969 8.582031 26.636719 8.800781 Z M 26.636719 8.800781 "/>
<path style=" stroke:none;fill-rule:nonzero;fill:rgb(0%,0%,0%);fill-opacity:1;" d="M 32.242188 10.425781 L 32.289062 10.429688 C 32.296875 10.429688 32.304688 10.429688 32.3125 10.429688 C 32.992188 10.429688 33.550781 9.886719 33.5625 9.203125 C 33.578125 8.515625 33.03125 7.941406 32.339844 7.929688 L 32.277344 7.925781 C 31.589844 7.910156 31.019531 8.46875 31.011719 9.160156 C 31 9.851562 31.554688 10.417969 32.242188 10.425781 Z M 32.242188 10.425781 "/>
</g>
</svg>
